<mxfile host="app.diagrams.net" agent="Mozilla/5.0 (Macintosh; Intel Mac OS X 10_15_7) AppleWebKit/537.36 (KHTML, like Gecko) Chrome/138.0.0.0 Safari/537.36" version="28.0.4">
  <diagram name="Page-1" id="ILiOnNrIJ9HO5rxD12Q1">
    <mxGraphModel dx="1665" dy="681" grid="1" gridSize="10" guides="1" tooltips="1" connect="1" arrows="1" fold="1" page="1" pageScale="1" pageWidth="850" pageHeight="1100" math="0" shadow="0">
      <root>
        <mxCell id="0" />
        <mxCell id="1" parent="0" />
        <mxCell id="RskWD1hmxm9y3TOeHxz3-1" value="bunkerweb (modsecurity included)" style="rounded=1;whiteSpace=wrap;html=1;" vertex="1" parent="1">
          <mxGeometry x="365" y="300" width="130" height="70" as="geometry" />
        </mxCell>
        <mxCell id="RskWD1hmxm9y3TOeHxz3-2" value="client 1" style="shape=umlActor;verticalLabelPosition=bottom;verticalAlign=top;html=1;outlineConnect=0;" vertex="1" parent="1">
          <mxGeometry x="140" y="250" width="30" height="60" as="geometry" />
        </mxCell>
        <mxCell id="RskWD1hmxm9y3TOeHxz3-3" value="" style="endArrow=classic;html=1;rounded=0;exitX=0.5;exitY=0.5;exitDx=0;exitDy=0;exitPerimeter=0;entryX=0;entryY=0.25;entryDx=0;entryDy=0;" edge="1" parent="1" source="RskWD1hmxm9y3TOeHxz3-2" target="RskWD1hmxm9y3TOeHxz3-1">
          <mxGeometry width="50" height="50" relative="1" as="geometry">
            <mxPoint x="380" y="260" as="sourcePoint" />
            <mxPoint x="430" y="210" as="targetPoint" />
          </mxGeometry>
        </mxCell>
        <mxCell id="RskWD1hmxm9y3TOeHxz3-20" value="test.example.com" style="edgeLabel;html=1;align=center;verticalAlign=middle;resizable=0;points=[];rotation=10;" vertex="1" connectable="0" parent="RskWD1hmxm9y3TOeHxz3-3">
          <mxGeometry x="-0.0365" y="-1" relative="1" as="geometry">
            <mxPoint as="offset" />
          </mxGeometry>
        </mxCell>
        <mxCell id="RskWD1hmxm9y3TOeHxz3-4" value="bunkerweb scheduler" style="rounded=1;whiteSpace=wrap;html=1;" vertex="1" parent="1">
          <mxGeometry x="287.5" y="470" width="120" height="60" as="geometry" />
        </mxCell>
        <mxCell id="RskWD1hmxm9y3TOeHxz3-6" value="bunkerweb UI" style="rounded=1;whiteSpace=wrap;html=1;" vertex="1" parent="1">
          <mxGeometry x="452.5" y="470" width="120" height="60" as="geometry" />
        </mxCell>
        <mxCell id="RskWD1hmxm9y3TOeHxz3-7" value="" style="endArrow=classic;html=1;rounded=0;entryX=0.75;entryY=1;entryDx=0;entryDy=0;exitX=0.5;exitY=0;exitDx=0;exitDy=0;" edge="1" parent="1" source="RskWD1hmxm9y3TOeHxz3-6" target="RskWD1hmxm9y3TOeHxz3-1">
          <mxGeometry width="50" height="50" relative="1" as="geometry">
            <mxPoint x="670" y="300" as="sourcePoint" />
            <mxPoint x="720" y="250" as="targetPoint" />
          </mxGeometry>
        </mxCell>
        <mxCell id="RskWD1hmxm9y3TOeHxz3-8" value="Security Engineer" style="shape=umlActor;verticalLabelPosition=bottom;verticalAlign=top;html=1;outlineConnect=0;" vertex="1" parent="1">
          <mxGeometry x="415" y="580" width="30" height="60" as="geometry" />
        </mxCell>
        <mxCell id="RskWD1hmxm9y3TOeHxz3-10" value="" style="endArrow=classic;html=1;rounded=0;entryX=0.5;entryY=1;entryDx=0;entryDy=0;exitX=0.5;exitY=0.5;exitDx=0;exitDy=0;exitPerimeter=0;" edge="1" parent="1" source="RskWD1hmxm9y3TOeHxz3-8" target="RskWD1hmxm9y3TOeHxz3-6">
          <mxGeometry width="50" height="50" relative="1" as="geometry">
            <mxPoint x="557.5" y="370" as="sourcePoint" />
            <mxPoint x="452.5" y="520" as="targetPoint" />
          </mxGeometry>
        </mxCell>
        <mxCell id="RskWD1hmxm9y3TOeHxz3-11" value="Application 1" style="rounded=1;whiteSpace=wrap;html=1;" vertex="1" parent="1">
          <mxGeometry x="670" y="250" width="120" height="60" as="geometry" />
        </mxCell>
        <mxCell id="RskWD1hmxm9y3TOeHxz3-12" value="Application 2" style="rounded=1;whiteSpace=wrap;html=1;" vertex="1" parent="1">
          <mxGeometry x="670" y="360" width="120" height="60" as="geometry" />
        </mxCell>
        <mxCell id="RskWD1hmxm9y3TOeHxz3-13" value="" style="endArrow=classic;html=1;rounded=0;exitX=1;exitY=0.25;exitDx=0;exitDy=0;entryX=0;entryY=0.5;entryDx=0;entryDy=0;" edge="1" parent="1" source="RskWD1hmxm9y3TOeHxz3-1" target="RskWD1hmxm9y3TOeHxz3-11">
          <mxGeometry width="50" height="50" relative="1" as="geometry">
            <mxPoint x="550" y="370" as="sourcePoint" />
            <mxPoint x="600" y="320" as="targetPoint" />
          </mxGeometry>
        </mxCell>
        <mxCell id="RskWD1hmxm9y3TOeHxz3-21" value="test.example.com" style="edgeLabel;html=1;align=center;verticalAlign=middle;resizable=0;points=[];rotation=-13;" vertex="1" connectable="0" parent="RskWD1hmxm9y3TOeHxz3-13">
          <mxGeometry x="-0.1189" y="-1" relative="1" as="geometry">
            <mxPoint as="offset" />
          </mxGeometry>
        </mxCell>
        <mxCell id="RskWD1hmxm9y3TOeHxz3-14" value="" style="endArrow=classic;html=1;rounded=0;exitX=1;exitY=0.75;exitDx=0;exitDy=0;entryX=0;entryY=0.5;entryDx=0;entryDy=0;" edge="1" parent="1" source="RskWD1hmxm9y3TOeHxz3-1" target="RskWD1hmxm9y3TOeHxz3-12">
          <mxGeometry width="50" height="50" relative="1" as="geometry">
            <mxPoint x="520" y="340" as="sourcePoint" />
            <mxPoint x="690" y="340" as="targetPoint" />
          </mxGeometry>
        </mxCell>
        <mxCell id="RskWD1hmxm9y3TOeHxz3-23" value="test2.example.com" style="edgeLabel;html=1;align=center;verticalAlign=middle;resizable=0;points=[];rotation=13;" vertex="1" connectable="0" parent="RskWD1hmxm9y3TOeHxz3-14">
          <mxGeometry x="-0.07" y="3" relative="1" as="geometry">
            <mxPoint as="offset" />
          </mxGeometry>
        </mxCell>
        <mxCell id="RskWD1hmxm9y3TOeHxz3-16" value="client 2" style="shape=umlActor;verticalLabelPosition=bottom;verticalAlign=top;html=1;outlineConnect=0;" vertex="1" parent="1">
          <mxGeometry x="140" y="360" width="30" height="60" as="geometry" />
        </mxCell>
        <mxCell id="RskWD1hmxm9y3TOeHxz3-17" value="" style="endArrow=classic;html=1;rounded=0;exitX=0.5;exitY=0.5;exitDx=0;exitDy=0;exitPerimeter=0;entryX=0;entryY=0.75;entryDx=0;entryDy=0;" edge="1" parent="1" source="RskWD1hmxm9y3TOeHxz3-16" target="RskWD1hmxm9y3TOeHxz3-1">
          <mxGeometry width="50" height="50" relative="1" as="geometry">
            <mxPoint x="270" y="310" as="sourcePoint" />
            <mxPoint x="475" y="340" as="targetPoint" />
          </mxGeometry>
        </mxCell>
        <mxCell id="RskWD1hmxm9y3TOeHxz3-22" value="test2.example.com" style="edgeLabel;html=1;align=center;verticalAlign=middle;resizable=0;points=[];rotation=-12;" vertex="1" connectable="0" parent="RskWD1hmxm9y3TOeHxz3-17">
          <mxGeometry x="-0.1186" y="-3" relative="1" as="geometry">
            <mxPoint as="offset" />
          </mxGeometry>
        </mxCell>
        <mxCell id="RskWD1hmxm9y3TOeHxz3-18" value="" style="endArrow=classic;html=1;rounded=0;entryX=0.5;entryY=1;entryDx=0;entryDy=0;exitX=0.5;exitY=0.5;exitDx=0;exitDy=0;exitPerimeter=0;" edge="1" parent="1" source="RskWD1hmxm9y3TOeHxz3-8" target="RskWD1hmxm9y3TOeHxz3-4">
          <mxGeometry width="50" height="50" relative="1" as="geometry">
            <mxPoint x="452.5" y="420" as="sourcePoint" />
            <mxPoint x="557.5" y="520" as="targetPoint" />
          </mxGeometry>
        </mxCell>
        <mxCell id="RskWD1hmxm9y3TOeHxz3-19" value="" style="endArrow=classic;html=1;rounded=0;entryX=0.25;entryY=1;entryDx=0;entryDy=0;exitX=0.5;exitY=0;exitDx=0;exitDy=0;" edge="1" parent="1" source="RskWD1hmxm9y3TOeHxz3-4" target="RskWD1hmxm9y3TOeHxz3-1">
          <mxGeometry width="50" height="50" relative="1" as="geometry">
            <mxPoint x="590" y="780" as="sourcePoint" />
            <mxPoint x="520" y="510" as="targetPoint" />
          </mxGeometry>
        </mxCell>
      </root>
    </mxGraphModel>
  </diagram>
</mxfile>
